<?xml version="1.0" encoding="UTF-8"?>
<svg id="Layer_1" data-name="Layer 1" xmlns="http://www.w3.org/2000/svg" viewBox="0 0 1451.34 1451.34">
  <defs>
    <style>
      .cls-1 {
        fill: #fecd4c;
      }

      .cls-2 {
        fill: #fff;
      }
    </style>
  </defs>
  <rect class="cls-1" width="1451.34" height="1451.34" rx="73.7" ry="73.7"/>
  <g>
    <path class="cls-2" d="M581.09,988.83V288.01c0-2.77-2.24-5.01-5.01-5.01h-220.56c-2.77,0-5.01,2.24-5.01,5.01v820.21c0,33.2,26.92,60.12,60.12,60.12h165.45c2.77,0,5.01-2.24,5.01-5.01v-174.5Z"/>
    <path class="cls-2" d="M655.09,1168.34h11.28c45.74,0,105.77-1.57,135.84-5.01,108.4-12.22,212.14-55.45,279.18-129.7,73.93-80.51,110.9-187.03,110.9-319.55s-36.97-233.4-110.9-307.96c-64.54-65.79-152.88-105.26-263.78-118.11-30.08-3.45-67.67-5.01-113.41-5.01h-6.27c-2.77,0-5.01,2.24-5.01,5.01v170.19c0,2.74,2.2,4.97,4.94,5.01,22.38.33,44.11.71,57.72,1.81,60.15,5.33,107.14,28.82,141.6,70.8,35.71,44.49,53.88,105.26,53.88,182.02s-18.17,141.29-53.88,190.16c-35.09,46.99-93.36,63.24-142.11,74.26,0,0-11.68,2.68-18.59,4.1-32.89,6.75-43.79,30.18-47.91,63.51-8.59,69.4-33.48,118.47-33.48,118.47"/>
    <path class="cls-2" d="M908.99,685.27l-6-13.55c-3.13-7.08-11.41-10.27-18.49-7.14l-82.45,36.51c-10.31-11.22-25.1-18.25-41.53-18.25-8.45,0-16.46,1.87-23.66,5.2l-92.69-106.87c-5.07-5.85-13.92-6.48-19.77-1.4l-11.19,9.71c-5.85,5.07-6.48,13.92-1.4,19.77l95.79,110.45c-2.25,6.09-3.49,12.68-3.49,19.55,0,31.15,25.25,56.41,56.41,56.41s55.23-24.11,56.35-54.27l84.98-37.63c7.08-3.13,10.27-11.41,7.14-18.49Z"/>
  </g>
</svg>