<svg width="195" height="176" viewBox="0 0 195 176" fill="none" xmlns="http://www.w3.org/2000/svg">
<ellipse cx="97.2698" cy="109.111" rx="70.719" ry="62.56" fill="#F64740"/>
<path d="M97.2871 21.0771C98.9515 20.9485 100.687 21.6882 101.65 23.5088L129.262 75.7031L174.34 40.9727C177.493 38.544 182.03 41.012 181.704 44.9785L172.064 162.311C171.869 164.688 169.883 166.519 167.497 166.519H97.3281C97.3115 166.519 97.2949 166.517 97.2783 166.517C97.2617 166.517 97.2451 166.519 97.2285 166.519H27.0596C24.674 166.518 22.6875 164.688 22.4922 162.311L12.8525 44.9785C12.5268 41.0121 17.064 38.5441 20.2168 40.9727L65.3066 75.7129L92.9238 23.5088C93.8868 21.6884 95.6229 20.9487 97.2871 21.0771Z" fill="#FECD4C"/>
<path d="M22.8711 157.609H171.667V168.539C171.667 172.335 168.589 175.413 164.792 175.413H29.7456C25.9489 175.413 22.8711 172.335 22.8711 168.539V157.609Z" fill="#FF9A3C"/>
<circle cx="12.8297" cy="34.2282" r="12.3258" fill="#FECD4C"/>
<circle cx="181.713" cy="34.2282" r="12.3258" fill="#FECD4C"/>
<path d="M55.1436 135.68L44.7585 99.9872H54.0345L59.4792 123.681H59.7816L66.0329 99.9872H73.6957L79.8461 123.681H80.1486L85.694 99.9872H94.8692L84.5849 135.68H76.5188L69.9651 113.7H69.6626L63.2097 135.68H55.1436ZM106.884 99.9872V135.68H98.5151V99.9872H106.884ZM142.597 99.9872V135.68H135.438L120.919 114.708H120.718V135.68H112.349V99.9872H119.609L133.926 120.959H134.128V99.9872H142.597Z" fill="white"/>
<circle cx="97.2789" cy="12.7867" r="12.3258" fill="#FECD4C"/>
</svg>
